<?xml version="1.0" encoding="UTF-8" standalone="no"?>
<svg
   version="1.1"
   id="Layer_1"
   x="0px"
   y="0px"
   viewBox="0 0 122.9 122.2"
   style="enable-background:new 0 0 122.9 122.2"
   xml:space="preserve"
   sodipodi:docname="store-location-icon.svg"
   inkscape:version="1.4.2 (f4327f4, 2025-05-13)"
   xmlns:inkscape="http://www.inkscape.org/namespaces/inkscape"
   xmlns:sodipodi="http://sodipodi.sourceforge.net/DTD/sodipodi-0.dtd"
   xmlns="http://www.w3.org/2000/svg"
   xmlns:svg="http://www.w3.org/2000/svg"><defs
     id="defs2" /><sodipodi:namedview
     id="namedview2"
     pagecolor="#ffffff"
     bordercolor="#000000"
     borderopacity="0.25"
     inkscape:showpageshadow="2"
     inkscape:pageopacity="0.0"
     inkscape:pagecheckerboard="0"
     inkscape:deskcolor="#d1d1d1"
     inkscape:zoom="2"
     inkscape:cx="7.75"
     inkscape:cy="70.5"
     inkscape:window-width="1600"
     inkscape:window-height="930"
     inkscape:window-x="-6"
     inkscape:window-y="-6"
     inkscape:window-maximized="1"
     inkscape:current-layer="g2" /><style
     type="text/css"
     id="style1">.st0{fill-rule:evenodd;clip-rule:evenodd;fill:#393939;} .st1{fill-rule:evenodd;clip-rule:evenodd;fill:#D8453E;}</style><g
     id="g2"><path
       class="st0"
       d="M 21.600001,0 H 103.3 c 1.9,0 3.5,1.6 3.5,3.5 0,1.9 -1.6,3.5 -3.5,3.5 H 21.600001 c -1.9,0 -3.5,-1.6 -3.5,-3.5 0,-1.9 1.6,-3.5 3.5,-3.5 z M 122.1,44.3 v 4.2 c 0,0.4 0.1,0.8 0.1,1.2 0,7.1 -6.6,12.8 -14.7,12.8 -8.099999,0 -14.699999,-5.7 -14.699999,-12.8 v -0.9 h -0.6 v 0.9 c 0,7.1 -6.6,12.8 -14.7,12.8 -8.1,0 -14.7,-5.7 -14.7,-12.8 v -0.9 h -0.6 v 0.9 c 0,7.1 -6.6,12.8 -14.7,12.8 -8.1,0 -14.7,-5.7 -14.7,-12.8 v -0.9 h -0.4 v 0.9 c 0,7.1 -6.6,12.8 -14.7,12.8 -8.0999998,0 -14.6999998,-5.7 -14.6999998,-12.8 0,-0.3 0,-0.7 0.1,-1 V 44.3 Z M 17.800001,10.7 H 107.7 l 11.5,24.5 H 22.875 5.9000012 Z M 4.0000012,106.9 H 16.400001 V 71.5 h 0.6 0.1 0.2 v 0 0 h 0.2 v 0 h 0.1 v 0 0 0 c 5.6,0 10.8,-1.8 14.9,-4.8 v 0 0 0 0 0 0 0 0 0 0 0 0 l 0.1,0.1 v 0 0 0 h 0.1 v 0 0 0 0 0 0 0 0.1 0 0 0 0 0 0 0 0 0 0 l 0.2,0.2 v 0 0 l 0.2,0.1 v 0 l 0.2,0.1 v 0 0 0 0 0 0 0 l -0.125,-0.5625 -0.04166,40.86366 H 88.449683 L 88.199998,68.6 c 0,0 1.7,-1 2.6,-1.5 v 0 0 l 0.2,-0.1 v 0 h 0.1 0.1 v 0 l 0.1,-0.1 v 0 0 l 0.2,-0.1 c 4.1,3 9.300002,4.9 15.000002,4.9 v 0 0 0 0 35.3 h 12.4 c 1.9,0 3.5,3.4 3.5,7.6 0,4.2 -1.6,7.6 -3.5,7.6 H 4.0000012 c -1.9,0 -3.50000006,-3.4 -3.50000006,-7.6 0,-4.2 1.60000006,-7.7 3.50000006,-7.7 z"
       id="path1"
       sodipodi:nodetypes="ssssssscssssccsssccsssccssscccccccccssccccccccccccssccccccccccccccccccccccccccccccccccccccccccccccccccccscccccccccccscccccsssss" /><g
       id="g3"
       transform="translate(0,-2)"><path
         style="font-variation-settings:normal;opacity:1;fill:none;fill-opacity:1;stroke:#d8453e;stroke-width:8.2;stroke-linecap:butt;stroke-linejoin:miter;stroke-miterlimit:4;stroke-dasharray:none;stroke-dashoffset:0;stroke-opacity:1;stop-color:#000000;stop-opacity:1"
         d="M 42.867394,69.448628 76.120791,102.70202"
         id="path3" /><path
         style="font-variation-settings:normal;fill:none;fill-opacity:1;stroke:#d8453e;stroke-width:8.2;stroke-linecap:butt;stroke-linejoin:miter;stroke-miterlimit:4;stroke-dasharray:none;stroke-dashoffset:0;stroke-opacity:1;stop-color:#000000"
         d="M 78.076699,69.448627 44.823303,102.70202"
         id="path3-2" /></g></g></svg>
